# xmcd CD database file
#
# Track frame offsets:
#	150
#	15185
#	31583
#	47057
#	59073
#	73299
#	95478
#
# Disc length: 1509 seconds
#
# Revision: 1
# Processed by: cddbd v1.5.2PL0 Copyright (c) Steve Scherf et al.
# Submitted via: CDex 1.51
#
DISCID=5605e307
DTITLE=Various Artist - ZM-PICKS-01
DYEAR=1900
DGENRE=Blues
TTITLE0=Hermes House Band - Country Roads
TTITLE1=George Ezra - Budapest
TTITLE2=Derek And The Dominoes - Layla
TTITLE3=Sister Act - My Guy (my god)
TTITLE4=Frank Sinatra - Summer Wind
TTITLE5=The Art Company - Susanna
TTITLE6=The Vengaboys - We Like To Party
EXTD=
EXTT0=
EXTT1=
EXTT2=
EXTT3=
EXTT4=
EXTT5=
EXTT6=
PLAYORDER=
